<svg width="198" height="198" viewBox="0 0 198 198" fill="none" xmlns="http://www.w3.org/2000/svg">
<g clip-path="url(#clip0_76_210)">
<path d="M52.925 139V123.65H48.15V120.75H60.85V123.65H56.075V139H52.925ZM64.2402 139V136.25H67.9152V123.5H64.2402V120.75H74.7402V123.5H71.0652V136.25H74.7402V139H64.2402ZM87.2055 143.5L84.4555 138.975L85.0055 139.225C84.9388 139.225 84.8555 139.225 84.7555 139.225C84.6721 139.242 84.5805 139.25 84.4805 139.25C83.3138 139.25 82.2971 139.025 81.4305 138.575C80.5638 138.125 79.8888 137.492 79.4055 136.675C78.9221 135.842 78.6805 134.883 78.6805 133.8V125.95C78.6805 124.833 78.9221 123.875 79.4055 123.075C79.8888 122.258 80.5638 121.625 81.4305 121.175C82.2971 120.725 83.3138 120.5 84.4805 120.5C85.6471 120.5 86.6638 120.725 87.5305 121.175C88.3971 121.625 89.0721 122.258 89.5555 123.075C90.0388 123.892 90.2805 124.85 90.2805 125.95V133.8C90.2805 134.9 90.0388 135.867 89.5555 136.7C89.0888 137.517 88.4221 138.142 87.5555 138.575L90.5805 143.5H87.2055ZM84.4805 136.5C85.3471 136.5 86.0055 136.267 86.4555 135.8C86.9221 135.317 87.1555 134.65 87.1555 133.8V125.95C87.1555 125.083 86.9138 124.417 86.4305 123.95C85.9638 123.467 85.3138 123.225 84.4805 123.225C83.6471 123.225 82.9888 123.467 82.5055 123.95C82.0388 124.417 81.8055 125.083 81.8055 125.95V133.8C81.8055 134.65 82.0388 135.317 82.5055 135.8C82.9721 136.267 83.6305 136.5 84.4805 136.5ZM94.2207 139V136.25H97.8957V123.5H94.2207V120.75H104.721V123.5H101.046V136.25H104.721V139H94.2207ZM109.211 139V136.25H112.886V123.5H109.211V120.75H119.711V123.5H116.036V136.25H119.711V139H109.211ZM127.876 139V123.65H123.101V120.75H135.801V123.65H131.026V139H127.876ZM139.191 139V136.25H142.866V123.5H139.191V120.75H149.691V123.5H146.016V136.25H149.691V139H139.191Z" fill="#8338EC"/>
<path d="M198 99C198 153.676 153.676 198 99 198C44.3238 198 0 153.676 0 99C0 44.3238 44.3238 0 99 0C153.676 0 198 44.3238 198 99ZM26.4931 99C26.4931 139.044 58.9555 171.507 99 171.507C139.044 171.507 171.507 139.044 171.507 99C171.507 58.9555 139.044 26.4931 99 26.4931C58.9555 26.4931 26.4931 58.9555 26.4931 99Z" fill="#8338EC"/>
<path opacity="0.3" d="M116.453 93.75L117.395 93.0075C117.818 92.705 118.5 92.0175 118.5 91V80H79.5V91C79.5 92.0175 80.1825 92.705 80.605 93.0075L81.5475 93.75H116.453ZM87.625 91C84.9275 91 82.75 89.1575 82.75 86.875C82.75 84.5925 84.9275 82.75 87.625 82.75C90.3225 82.75 92.5 84.5925 92.5 86.875C92.5 89.1575 90.3225 91 87.625 91ZM105.5 86.875C105.5 84.5925 107.677 82.75 110.375 82.75C113.072 82.75 115.25 84.5925 115.25 86.875C115.25 89.1575 113.072 91 110.375 91C107.677 91 105.5 89.1575 105.5 86.875ZM99 58C87.0075 58 82.3925 59.265 80.605 60.7225H117.362C115.607 59.265 110.993 58 99 58Z" fill="#8338EC"/>
<path d="M115.25 104.75H118.5C120.287 104.75 121.75 103.513 121.75 102V97.105C123.732 95.5925 125 93.42 125 91V63.5C125 53.875 113.365 52.5 99 52.5C84.635 52.5 73 53.875 73 63.5V91C73 93.42 74.2675 95.5925 76.25 97.105V102C76.25 103.513 77.7125 104.75 79.5 104.75H82.75C84.5375 104.75 86 103.513 86 102V99.25H112V102C112 103.513 113.462 104.75 115.25 104.75ZM99 58C110.992 58 115.607 59.265 117.395 60.7225H80.605C82.3925 59.265 87.0075 58 99 58ZM79.5 66.2225H118.5V74.5H79.5V66.2225ZM86 93.75H81.5475L80.605 93.0075C80.1825 92.705 79.5 92.0175 79.5 91V80H118.5V91C118.5 92.0175 117.817 92.705 117.395 93.0075L116.452 93.75H86Z" fill="#8338EC"/>
<path d="M87.625 91C90.3174 91 92.5 89.1532 92.5 86.875C92.5 84.5968 90.3174 82.75 87.625 82.75C84.9326 82.75 82.75 84.5968 82.75 86.875C82.75 89.1532 84.9326 91 87.625 91Z" fill="#8338EC"/>
<path d="M110.375 91C113.067 91 115.25 89.1532 115.25 86.875C115.25 84.5968 113.067 82.75 110.375 82.75C107.683 82.75 105.5 84.5968 105.5 86.875C105.5 89.1532 107.683 91 110.375 91Z" fill="#8338EC"/>
</g>
<defs>
<clipPath id="clip0_76_210">
<rect width="198" height="198" fill="white"/>
</clipPath>
</defs>
</svg>
